name D:\PhD\Datasets\SharingData_IBEC_VALDUCE\HM_Healthy_0001.mot
datacolumns 46
datarows 8
range 7.51000000 7.58000000
endheader
                time	         pelvis_tilt	     pelvis_rotation	           pelvis_tx	           pelvis_ty	           pelvis_tz	       hip_flexion_r	     hip_adduction_r	      hip_rotation_r	        knee_angle_r	       ankle_angle_r	    subtalar_angle_r	         mtp_angle_r	       hip_flexion_l	     hip_adduction_l	      hip_rotation_l	        knee_angle_l	       ankle_angle_l	    subtalar_angle_l	         mtp_angle_l	    lumbar_extension	      lumbar_bending	     lumbar_rotation	          arm_flex_r	           arm_add_r	           arm_rot_r	        elbow_flex_r	           pro_sup_r	        wrist_flex_r	         wrist_dev_r	          arm_flex_l	           arm_add_l	           arm_rot_l	        elbow_flex_l	           pro_sup_l	        wrist_flex_l	         wrist_dev_l	          end_eff_tx	          end_eff_ty	          end_eff_tz	             goal_tx	             goal_ty	             goal_tz	            elbow_tx	            elbow_ty	            elbow_tz	
          7.51000000	          0.00000000	          0.00000000	        321.56133181	        495.45184076	        379.85306208	          0.00000000	          0.00000000	          0.00000000	          0.00000000	          0.00000000	          0.00000000	          0.00000000	          0.00000000	          0.00000000	          0.00000000	          0.00000000	          0.00000000	          0.00000000	          0.00000000	         -5.08082008	          6.22139168	         -5.90903902	         35.95341873	        -33.64518356	         16.20678902	         89.64962006	         70.54998779	          0.00000000	          0.00000000	          0.00000000	          0.00000000	          0.00000000	          0.00000000	          0.00000000	          0.00000000	          0.00000000	        627.76513423	        539.62687229	        554.06175908	        596.66236596	        561.34523993	        469.08181579	        295.34092950	        338.99525496	        714.42030160	
          7.52000000	          0.00000000	          0.00000000	        321.50609421	        495.41857535	        379.85841707	          0.00000000	          0.00000000	          0.00000000	          0.00000000	          0.00000000	          0.00000000	          0.00000000	          0.00000000	          0.00000000	          0.00000000	          0.00000000	          0.00000000	          0.00000000	          0.00000000	         -5.02231693	          6.21126556	         -5.91654730	         35.57118607	        -33.84109116	         16.13709641	         89.47657776	         70.56891632	          0.00000000	          0.00000000	          0.00000000	          0.00000000	          0.00000000	          0.00000000	          0.00000000	          0.00000000	          0.00000000	        628.29209699	        536.02759076	        555.33784218	        597.81821071	        557.95297306	        470.35940946	        293.65446224	        338.42787800	        714.42828023	
          7.53000000	          0.00000000	          0.00000000	        321.47716563	        495.42436164	        379.86925655	          0.00000000	          0.00000000	          0.00000000	          0.00000000	          0.00000000	          0.00000000	          0.00000000	          0.00000000	          0.00000000	          0.00000000	          0.00000000	          0.00000000	          0.00000000	          0.00000000	         -5.04897118	          6.22739267	         -5.92992306	         35.15147781	        -33.83799362	         15.97968674	         89.32767487	         70.42703247	          0.00000000	          0.00000000	          0.00000000	          0.00000000	          0.00000000	          0.00000000	          0.00000000	          0.00000000	          0.00000000	        628.99069365	        532.58823060	        556.76894734	        598.85472052	        554.65730259	        471.40896315	        291.94061019	        337.79299482	        714.40480886	
          7.54000000	          0.00000000	          0.00000000	        321.43838650	        495.41652020	        379.88377832	          0.00000000	          0.00000000	          0.00000000	          0.00000000	          0.00000000	          0.00000000	          0.00000000	          0.00000000	          0.00000000	          0.00000000	          0.00000000	          0.00000000	          0.00000000	          0.00000000	         -5.05434132	          6.22559643	         -5.92974949	         34.76460648	        -33.88740921	         15.87340736	         89.31892395	         69.72911072	          0.00000000	          0.00000000	          0.00000000	          0.00000000	          0.00000000	          0.00000000	          0.00000000	          0.00000000	          0.00000000	        629.47746198	        529.20398025	        557.99753476	        600.02700175	        551.30100533	        472.54831983	        290.27541872	        337.33682248	        714.54138259	
          7.55000000	          0.00000000	          0.00000000	        321.40032296	        495.41990795	        379.89796182	          0.00000000	          0.00000000	          0.00000000	          0.00000000	          0.00000000	          0.00000000	          0.00000000	          0.00000000	          0.00000000	          0.00000000	          0.00000000	          0.00000000	          0.00000000	          0.00000000	         -5.02486706	          6.23020887	         -5.91896582	         34.42525864	        -33.96593857	         15.76143837	         89.03650665	         70.11950684	          0.00000000	          0.00000000	          0.00000000	          0.00000000	          0.00000000	          0.00000000	          0.00000000	          0.00000000	          0.00000000	        629.68720634	        525.85406819	        558.97458473	        601.08627651	        547.74677038	        473.69177544	        288.68346494	        336.62435434	        714.36347195	
          7.56000000	          0.00000000	          0.00000000	        321.34155404	        495.41003911	        379.89454409	          0.00000000	          0.00000000	          0.00000000	          0.00000000	          0.00000000	          0.00000000	          0.00000000	          0.00000000	          0.00000000	          0.00000000	          0.00000000	          0.00000000	          0.00000000	          0.00000000	         -4.99864006	          6.22678852	         -5.91626787	         34.06856155	        -34.07585907	         15.62149525	         88.87731171	         70.54187012	          0.00000000	          0.00000000	          0.00000000	          0.00000000	          0.00000000	          0.00000000	          0.00000000	          0.00000000	          0.00000000	        629.85509883	        522.67959877	        559.99230703	        602.19956570	        544.17746536	        474.69656265	        287.01899282	        335.91883859	        714.25926948	
          7.57000000	          0.00000000	          0.00000000	        321.31008121	        495.41920565	        379.89255538	          0.00000000	          0.00000000	          0.00000000	          0.00000000	          0.00000000	          0.00000000	          0.00000000	          0.00000000	          0.00000000	          0.00000000	          0.00000000	          0.00000000	          0.00000000	          0.00000000	         -5.00718498	          6.24782991	         -5.92137194	         33.67139816	        -34.05538940	         15.42307758	         88.65891266	         70.89709473	          0.00000000	          0.00000000	          0.00000000	          0.00000000	          0.00000000	          0.00000000	          0.00000000	          0.00000000	          0.00000000	        630.10064718	        519.61958778	        561.05891825	        603.35913846	        540.64548472	        475.71833337	        285.38158794	        335.30302417	        714.15524830	
          7.58000000	          0.00000000	          0.00000000	        321.27277258	        495.41561112	        379.88535451	          0.00000000	          0.00000000	          0.00000000	          0.00000000	          0.00000000	          0.00000000	          0.00000000	          0.00000000	          0.00000000	          0.00000000	          0.00000000	          0.00000000	          0.00000000	          0.00000000	         -5.01281071	          6.24323845	         -5.91399240	         33.34333801	        -34.11589813	         15.20618057	         88.37668610	         71.37628174	          0.00000000	          0.00000000	          0.00000000	          0.00000000	          0.00000000	          0.00000000	          0.00000000	          0.00000000	          0.00000000	        630.37515662	        516.24464150	        561.92565201	        604.38637642	        536.88135880	        476.88406358	        283.72744930	        334.65054319	        714.00657366	
